<svg xmlns="http://www.w3.org/2000/svg" viewBox="0 0 122 122">
    <rect width="100%" height="100%" fill="#fff" />
    <path fill="#0754a4" d="M 30.73 71.08 H 54.95 V 84.83 H 15.18 V 17.94 H 30.73 Z" />
    <path fill="#00a7ff" d="M 66.1 112.37 C 59.71 112.37 53.57 111.01 47.94 107.95 C 42.56 105.02 38.25 100.93 35.13 95.66 C 31.93 90.25 30.49 84.29 30.49 78.02 C 30.49 71.73 31.95 65.77 35.18 60.37 C 38.32 55.11 42.64 51.02 48.03 48.09 C 53.66 45.03 59.8 43.67 66.19 43.67 C 71.32 43.67 76.35 44.53 81.08 46.52 C 85.56 48.42 89.43 51.19 92.6 54.88 L 93.8 56.27 L 83.49 65.97 L 82.17 64.55 C 77.99 60.04 72.89 57.78 66.73 57.78 C 62.97 57.78 59.35 58.55 56.04 60.38 C 52.95 62.09 50.52 64.46 48.77 67.53 C 46.92 70.76 46.14 74.31 46.14 78.02 C 46.14 81.73 46.92 85.28 48.77 88.51 C 50.52 91.58 52.95 93.95 56.04 95.66 C 59.35 97.49 62.97 98.26 66.73 98.26 C 72.91 98.26 77.99 95.95 82.16 91.4 L 83.48 89.96 L 93.79 99.78 L 92.6 101.16 C 89.42 104.86 85.53 107.63 81.03 109.52 C 76.29 111.51 71.24 112.37 66.1 112.37 Z" />
    <path fill="#d93033" d="M 48.86 31.82 L 0.52 50.09 V 33.47 L 48.86 15.2 L 122.3 42.95 V 59.58 Z" />
</svg>